<svg width="20" height="15" viewBox="0 0 20 15" fill="none" xmlns="http://www.w3.org/2000/svg">
<path fill-rule="evenodd" clip-rule="evenodd" d="M2.44336 14.4073C1.49219 14.4073 0.71875 13.6373 0.71875 12.6816V4.52419L8.23242 10.3671C8.74023 10.7612 9.33203 10.9559 9.93164 10.9559C10.5195 10.9559 11.1172 10.7612 11.6289 10.3671L19.1387 4.52419V12.6816C19.1387 13.6374 18.3652 14.4073 17.4141 14.4073H2.44336ZM8.93946 9.45671L1.30665 3.51865C0.93556 3.2333 0.71876 2.78942 0.71876 2.32289C0.71876 1.36718 1.4922 0.592655 2.44337 0.592655H17.4141C18.3652 0.592655 19.1387 1.36719 19.1387 2.32289C19.1387 2.78942 18.8906 3.2333 18.5547 3.51865L10.918 9.45671C10.6289 9.68544 10.2793 9.79981 9.9297 9.79981C9.58009 9.79981 9.23048 9.68544 8.93947 9.45671H8.93946Z" fill="white"/>
</svg>
