<svg width="31" height="24" viewBox="0 0 31 24" fill="none" xmlns="http://www.w3.org/2000/svg">
<path fill-rule="evenodd" clip-rule="evenodd" d="M3.70215 23.1129C2.15137 23.1129 0.889648 21.8517 0.889648 20.2956V7.00341L13.1338 16.5212C13.96 17.1654 14.9307 17.4829 15.8975 17.4829C16.8682 17.4829 17.8389 17.1654 18.665 16.5303L30.9033 7.0034V20.2956C30.9033 21.8517 29.6435 23.1129 28.0908 23.1129L3.70215 23.1129ZM14.2861 15.0468L1.84668 5.37023C1.24316 4.89844 0.889648 4.17711 0.889648 3.41497C0.889648 1.86346 2.15137 0.602295 3.70215 0.602295H28.0908C29.6435 0.602295 30.9033 1.86346 30.9033 3.41497C30.9033 4.17712 30.501 4.89844 29.9521 5.37023L17.5127 15.0468C17.0381 15.4143 16.4697 15.598 15.8994 15.598C15.3311 15.598 14.7607 15.4143 14.2861 15.0468H14.2861Z" fill="white"/>
</svg>
