<svg width="21" height="21" viewBox="0 0 21 21" fill="none" xmlns="http://www.w3.org/2000/svg">
<path fill-rule="evenodd" clip-rule="evenodd" d="M10.5371 20.4404C8.74024 20.4404 7.14454 20.4131 6.375 20.3691C4.48047 20.2737 3.17578 19.7707 2.14258 18.7383C1.10742 17.7104 0.603525 16.4055 0.507815 14.5073C0.416015 12.8335 0.416015 7.85034 0.507815 6.17651C0.554695 5.26953 0.683595 4.54565 0.914065 3.89795C1.17773 3.14478 1.58008 2.5061 2.14258 1.94556C3.1836 0.910887 4.48829 0.409427 6.375 0.319337C7.14648 0.275387 8.7422 0.248047 10.5371 0.248047C12.334 0.248047 13.9297 0.275387 14.7012 0.319337C16.5879 0.414307 17.8926 0.917237 18.9316 1.94996C19.9688 2.98902 20.4727 4.29395 20.5625 6.18116C20.6602 7.85426 20.6602 12.8342 20.5625 14.5073C20.4648 16.4021 19.9629 17.707 18.9316 18.7383C17.8965 19.7764 16.5918 20.2793 14.7012 20.3691C13.9316 20.4131 12.3359 20.4404 10.5371 20.4404ZM10.5371 18.6206C10.7363 18.6206 10.9688 18.623 11.2168 18.6255L11.2617 18.626L11.3379 18.6267C11.6406 18.6296 11.9844 18.6331 12.3359 18.6331C13.668 18.6331 15.5488 18.5898 16.4902 18.2173C17.377 17.8604 18.0586 17.1782 18.4102 16.2966C18.8633 15.1543 18.8359 12.6919 18.8184 11.0625V11.0103C18.8164 10.7673 18.8145 10.5388 18.8145 10.3442C18.8145 10.1494 18.8164 9.92114 18.8184 9.67847V9.62622C18.8359 7.99976 18.8633 5.54199 18.4102 4.39185C18.0527 3.50367 17.3711 2.82325 16.4902 2.47559C15.541 2.1001 13.6348 2.05664 12.2852 2.05664C11.9238 2.05664 11.5762 2.05981 11.2695 2.06274L11.2442 2.06298L11.2012 2.06347C10.959 2.06567 10.7305 2.06786 10.5371 2.06786C10.334 2.06786 10.1016 2.06566 9.81837 2.06273C9.46681 2.05907 9.12111 2.05565 8.75392 2.05565C7.41798 2.05565 5.53126 2.09911 4.58986 2.47557C3.70509 2.82738 3.0215 3.5078 2.66799 4.39183C2.22072 5.53319 2.24612 8.00291 2.26174 9.63719V9.68089C2.26369 9.92235 2.26565 10.1501 2.26565 10.3442C2.26565 10.5432 2.2637 10.7781 2.26174 11.0271V11.0708C2.24416 12.6982 2.21683 15.1574 2.66799 16.2966C3.02541 17.1833 3.70901 17.8655 4.58987 18.2173C5.53323 18.5891 7.43557 18.632 8.78323 18.632C9.14261 18.632 9.4844 18.6289 9.83011 18.6255L9.87894 18.625C10.1192 18.6228 10.3457 18.6206 10.5371 18.6206ZM10.541 15.5176C7.68555 15.5176 5.3633 13.1987 5.3633 10.3486C5.3633 7.49853 7.68556 5.17993 10.541 5.17993C13.3984 5.17993 15.7246 7.49853 15.7246 10.3486C15.7246 13.1987 13.3984 15.5176 10.541 15.5176ZM10.541 6.98755C8.68361 6.98755 7.17189 8.49536 7.17189 10.3486C7.17189 12.2021 8.68361 13.71 10.541 13.71C12.4004 13.71 13.9121 12.2021 13.9121 10.3486C13.9121 8.49536 12.4004 6.98755 10.541 6.98755ZM15.9238 6.16749C15.2578 6.16749 14.7149 5.62501 14.7149 4.95802C14.7149 4.29103 15.2578 3.74855 15.9238 3.74855C16.5899 3.74855 17.1328 4.29103 17.1328 4.95802C17.1328 5.62501 16.5898 6.16749 15.9238 6.16749Z" fill="#0095F3"/>
</svg>
