<svg width="16" height="17" viewBox="0 0 16 17" fill="none" xmlns="http://www.w3.org/2000/svg">
<path fill-rule="evenodd" clip-rule="evenodd" d="M7.88379 16.0716C6.53418 16.0716 5.33692 16.0508 4.75879 16.0173C3.34668 15.9495 2.37012 15.5725 1.58887 14.7947C0.811532 14.0176 0.434572 13.0384 0.366212 11.6199C0.291992 10.3668 0.291992 6.62958 0.366212 5.37168C0.438482 3.95184 0.815432 2.97418 1.58887 2.20168C2.36621 1.42431 3.34278 1.04726 4.75879 0.97911C5.33887 0.94781 6.53613 0.92837 7.88574 0.92837C9.23535 0.92837 10.4307 0.94781 11.0068 0.97911C12.4307 1.05282 13.4092 1.42988 14.1826 2.20168C14.96 2.97966 15.3369 3.95881 15.4053 5.37651C15.4795 6.63344 15.4795 10.3678 15.4053 11.6199C15.3311 13.0438 14.9541 14.023 14.1826 14.7947C13.4092 15.5721 12.4307 15.9492 11.0068 16.0173C10.4307 16.0508 9.2334 16.0716 7.88379 16.0716ZM7.88574 14.7077C8.04199 14.7077 8.22558 14.7096 8.42676 14.7116C8.66895 14.7141 8.94239 14.7169 9.22949 14.7169C10.2314 14.7169 11.6436 14.6844 12.3506 14.4033C13.0127 14.1372 13.5244 13.6257 13.79 12.9632C14.1299 12.1182 14.1123 10.2766 14.1006 9.05807L14.0986 9.03917C14.0947 8.83814 14.0947 8.65753 14.0947 8.49818C14.0947 8.33883 14.0947 8.15822 14.0986 7.95737L14.1006 7.93854C14.1123 6.72311 14.1299 4.88635 13.79 4.03313C13.5244 3.36859 13.0127 2.85889 12.3506 2.59793C11.6436 2.3168 10.2314 2.28429 9.22949 2.28429C8.94238 2.28429 8.66894 2.2871 8.42676 2.28958C8.22559 2.29163 8.04199 2.2935 7.88574 2.2935C7.73144 2.2935 7.55176 2.29167 7.35449 2.28965L7.34668 2.28958C7.10449 2.2871 6.8291 2.28429 6.54395 2.28429C5.54395 2.28429 4.13184 2.3168 3.42481 2.59793C2.76075 2.86278 2.24903 3.37248 1.98536 4.03313C1.64747 4.89005 1.667 6.74376 1.67872 7.9704C1.68067 8.16618 1.68067 8.3445 1.68067 8.49818C1.68067 8.65752 1.68067 8.83811 1.67676 9.03905L1.67481 9.05791C1.66309 10.2749 1.64551 12.1141 1.98536 12.9632C2.25099 13.6257 2.76075 14.1372 3.42481 14.4033C4.13379 14.6835 5.56934 14.7159 6.58692 14.7159C6.86231 14.7159 7.12403 14.7135 7.35645 14.7113L7.36231 14.7112L7.36817 14.7112C7.56153 14.7093 7.73535 14.7077 7.88574 14.7077ZM7.88574 12.3834C5.74707 12.3834 4.00488 10.6426 4.00488 8.50302C4.00488 6.36339 5.74707 4.62267 7.88574 4.62267C10.0244 4.62267 11.7647 6.36339 11.7647 8.50302C11.7647 10.6426 10.0244 12.3834 7.88574 12.3834ZM7.88574 5.98538C6.49316 5.98538 5.3623 7.11479 5.3623 8.50302C5.3623 9.89391 6.49316 11.0255 7.88574 11.0255C9.27441 11.0255 10.4033 9.89391 10.4033 8.50302C10.4033 7.11479 9.27441 5.98538 7.88574 5.98538ZM11.9248 5.36201C11.4248 5.36201 11.0166 4.95447 11.0166 4.45354C11.0166 3.9526 11.4248 3.54506 11.9248 3.54506C12.4248 3.54506 12.833 3.9526 12.833 4.45354C12.833 4.95447 12.4248 5.36201 11.9248 5.36201Z" fill="white"/>
</svg>
