<svg width="31" height="31" viewBox="0 0 31 31" fill="none" xmlns="http://www.w3.org/2000/svg">
<path fill-rule="evenodd" clip-rule="evenodd" d="M30.8564 23.2743L29.4932 29.1825C29.2998 30.0177 28.5654 30.6023 27.708 30.6023C12.9189 30.6015 0.889648 18.5735 0.889648 3.78462C0.889648 2.92531 1.47559 2.19063 2.31153 2.00014L8.21778 0.637413C9.08106 0.437643 9.95801 0.884243 10.3174 1.69942L13.042 8.05934C13.3604 8.80855 13.1455 9.68086 12.5166 10.1952L9.36036 12.7299C11.3525 16.7866 14.6514 20.0853 18.71 22.0786L21.2939 18.9249C21.8018 18.2933 22.6826 18.0749 23.4326 18.3988L29.792 21.125C30.5557 21.5274 31.0537 22.4188 30.8564 23.2743V23.2743Z" fill="white"/>
</svg>
