<svg width="19" height="17" viewBox="0 0 19 17" fill="none" xmlns="http://www.w3.org/2000/svg">
<path fill-rule="evenodd" clip-rule="evenodd" d="M16.4434 4.7022C16.4551 4.8671 16.4551 5.0331 16.4551 5.199C16.4551 10.2511 12.707 16.072 5.85742 16.072C3.74805 16.072 1.78711 15.445 0.138672 14.3566C0.437502 14.3919 0.724612 14.4045 1.03906 14.4045C2.77929 14.4045 4.38086 13.8003 5.66211 12.7714C4.02344 12.7361 2.65039 11.6356 2.17774 10.1205C2.40821 10.1563 2.63868 10.1805 2.88282 10.1805C3.2168 10.1805 3.55274 10.1326 3.86134 10.0499C2.15626 9.6953 0.876972 8.157 0.876972 6.299V6.2516C1.37111 6.536 1.94924 6.7131 2.55861 6.7368C1.55666 6.0513 0.898452 4.8788 0.898452 3.5547C0.898452 2.8441 1.084 2.193 1.40626 1.6256C3.24024 3.9451 5.9961 5.4597 9.08595 5.6251C9.02931 5.3412 8.99415 5.0451 8.99415 4.7496C8.99415 2.6434 10.6543 0.927999 12.7188 0.927999C13.7891 0.927999 14.7598 1.389 15.4395 2.1345C16.2813 1.969 17.0899 1.6493 17.8047 1.212C17.5274 2.0987 16.9395 2.8441 16.166 3.3177C16.916 3.235 17.6426 3.0221 18.3106 2.7261C17.8047 3.4832 17.1699 4.1575 16.4434 4.7022Z" fill="white"/>
</svg>
