<svg width="12" height="11" viewBox="0 0 12 11" fill="none" xmlns="http://www.w3.org/2000/svg">
<path fill-rule="evenodd" clip-rule="evenodd" d="M11.0857 5.1711C11.0857 5.6001 10.7366 5.9481 10.3078 5.9481H6.81409V9.4434C6.81409 9.8729 6.46772 10.22 6.0376 10.22C5.60883 10.22 5.26111 9.8729 5.26111 9.4434V5.9481H1.76599C1.33734 5.9481 0.989502 5.6001 0.989502 5.1711C0.989502 4.7417 1.33734 4.3955 1.76599 4.3955H5.26111V0.899704C5.26111 0.470704 5.60883 0.122704 6.0376 0.122704C6.46771 0.122704 6.81409 0.470704 6.81409 0.899704V4.3955H10.3078C10.7392 4.395 11.0857 4.7412 11.0857 5.1711Z" fill="#0095F3"/>
</svg>
