<svg width="15" height="14" viewBox="0 0 15 14" fill="none" xmlns="http://www.w3.org/2000/svg">
<path fill-rule="evenodd" clip-rule="evenodd" d="M0.420877 13.0513C0.329937 13.0513 0.251227 12.9995 0.220377 12.9189C0.182967 12.8379 0.198957 12.7412 0.260167 12.6787C0.271577 12.667 1.43165 11.4165 1.77323 10.0347C0.743927 9.00391 0.199707 7.75586 0.199707 6.42627C0.199707 4.89063 0.930667 3.44873 2.25788 2.36523C3.58649 1.28125 5.35697 0.684082 7.24317 0.684082C9.12644 0.684082 10.9011 1.28857 12.2402 2.38672C13.5742 3.48047 14.3089 4.92334 14.3089 6.4502C14.3089 9.60206 11.1492 12.1665 7.26545 12.1665C6.24259 12.1665 5.24534 11.9868 4.3014 11.6318C3.08045 12.5737 1.77454 13.0513 0.420877 13.0513ZM10.7514 5.56835C10.2719 5.56835 9.86681 5.97216 9.86681 6.45019C9.86681 6.92382 10.2636 7.30908 10.7514 7.30908C11.263 7.30908 11.6344 6.94775 11.6344 6.45019C11.6344 5.96386 11.2383 5.56835 10.7514 5.56835ZM7.24318 5.56835C6.78636 5.56835 6.38564 5.98046 6.38564 6.45019C6.38564 6.93164 6.76232 7.30908 7.24318 7.30908C7.73299 7.30908 8.10234 6.93994 8.10234 6.45019C8.10234 5.96386 7.71693 5.56835 7.24318 5.56835ZM3.68565 5.56835C3.20527 5.56835 2.79945 5.97216 2.79945 6.45019C2.79945 6.92382 3.197 7.30908 3.68565 7.30908C4.19639 7.30908 4.56709 6.94775 4.56709 6.45019C4.56709 5.96386 4.17167 5.56835 3.68565 5.56835Z" fill="#0095F3"/>
</svg>
