<svg width="15" height="13" viewBox="0 0 15 13" fill="none" xmlns="http://www.w3.org/2000/svg">
<path fill-rule="evenodd" clip-rule="evenodd" d="M14.2433 7.21338L9.05067 12.2617C8.84889 12.4607 8.58473 12.5582 8.31788 12.5582C8.05238 12.5582 7.78687 12.4593 7.58387 12.2623C7.17762 11.8677 7.17762 11.2291 7.58387 10.8346L11.0045 7.5094H1.04908C0.474366 7.5094 0.00976562 7.05908 0.00976562 6.50049C0.00976562 5.9419 0.474366 5.4906 1.04908 5.4906H11.0045L7.58387 2.16492C7.17896 1.77039 7.17896 1.13172 7.58387 0.73767C7.99 0.34314 8.64698 0.34314 9.05457 0.73767L14.246 5.78564C14.6482 6.18212 14.6482 6.81873 14.2433 7.21338Z" fill="#090963"/>
</svg>
