<svg width="14" height="17" viewBox="0 0 14 17" fill="none" xmlns="http://www.w3.org/2000/svg">
<path fill-rule="evenodd" clip-rule="evenodd" d="M6.87131 4.30654C6.75151 3.39064 7.20941 2.41574 7.72571 1.81804C8.30181 1.12064 9.29591 0.623242 10.1103 0.582642C10.2087 1.53914 9.83221 2.47484 9.27601 3.17174C8.69831 3.84884 7.78561 4.38594 6.87131 4.30654Z" fill="#213430"/>
<path fill-rule="evenodd" clip-rule="evenodd" d="M13.0524 6.09308C12.9725 6.15358 11.2882 7.12618 11.3081 9.17068C11.3281 11.6128 13.4475 12.4275 13.4674 12.4474C13.4475 12.5069 13.1308 13.5991 12.3578 14.7301C11.6847 15.7235 10.9901 16.6966 9.8805 16.7165C8.8108 16.7363 8.4543 16.0805 7.2263 16.0805C5.9969 16.0805 5.6004 16.6961 4.5892 16.7363C3.5195 16.7756 2.708 15.6829 2.0334 14.6909C0.645696 12.6852 -0.404004 9.03258 1.0222 6.57018C1.7168 5.33898 2.9847 4.56498 4.3524 4.54508C5.4021 4.52568 6.3734 5.24058 7.0081 5.24058C7.6427 5.24058 8.7709 4.40658 10.0987 4.48598C10.6136 4.52568 12.1011 4.68458 13.0524 6.09308Z" fill="#213430"/>
</svg>
