<svg width="17" height="17" viewBox="0 0 17 17" fill="none" xmlns="http://www.w3.org/2000/svg">
<path fill-rule="evenodd" clip-rule="evenodd" d="M17.0025 8.84526C17.0025 11.3011 16.1125 13.3796 14.5608 14.7858C14.5622 14.7853 14.5622 14.7848 14.5622 14.7848L11.8253 14.6264L11.9052 12.7664C11.9052 12.7668 11.9052 12.7668 11.9037 12.7668C12.7965 12.1781 13.3799 11.2954 13.561 10.2599L9.09692 10.259V7.14636H16.8484C16.9483 7.68966 17.0025 8.25466 17.0025 8.84526Z" fill="#518EF8"/>
<path fill-rule="evenodd" clip-rule="evenodd" d="M14.5634 14.7834C14.5634 14.7838 14.5636 14.7843 14.5622 14.7848C13.2002 16.0193 11.3273 16.7366 9.09955 16.7366C5.87485 16.7366 3.08515 14.9262 1.72595 12.2878L2.18085 9.85138L4.46715 10.206C4.46715 10.2055 4.46715 10.2055 4.46715 10.205C5.12035 12.1195 6.94735 13.5398 9.09955 13.5398C10.2134 13.5398 11.1664 13.2549 11.9052 12.7664C11.9052 12.7664 11.9064 12.7658 11.9064 12.7654L14.5634 14.7834Z" fill="#28B446"/>
<path fill-rule="evenodd" clip-rule="evenodd" d="M4.46532 10.206C4.46532 10.2065 4.46532 10.2065 4.46532 10.207L1.72552 12.2888C1.16502 11.1975 0.846924 9.96629 0.846924 8.66129C0.846924 7.35589 1.16352 6.12419 1.72552 5.03339H3.75212L4.46532 7.11569C4.29982 7.60409 4.20712 8.12369 4.20712 8.66129C4.20712 9.19849 4.29982 9.71759 4.46532 10.206Z" fill="#FBBB00"/>
<path fill-rule="evenodd" clip-rule="evenodd" d="M14.6191 2.68837L12.2644 4.99237C11.4043 4.19097 10.3147 3.78057 9.09955 3.78057C6.94595 3.78057 5.11992 5.20119 4.46532 7.11569L1.72552 5.03339C3.08322 2.39459 5.87485 0.583374 9.09955 0.583374C11.3245 0.583374 13.19 1.38427 14.6191 2.68837Z" fill="#F14336"/>
</svg>
