<svg width="14" height="15" viewBox="0 0 14 15" fill="none" xmlns="http://www.w3.org/2000/svg">
<path fill-rule="evenodd" clip-rule="evenodd" d="M11.7948 14.9351H1.48027C0.705515 14.9351 0.0752053 14.3403 0.0752053 13.6094V6.10206H13.1998V13.6094C13.1998 14.3403 12.5695 14.9351 11.7948 14.9351ZM9.91708 11.4009C9.65911 11.4009 9.44925 11.5991 9.44925 11.8433V12.7266C9.44925 12.9693 9.65912 13.167 9.91708 13.167H10.8543C11.1132 13.167 11.3238 12.9693 11.3238 12.7266V11.8433C11.3238 11.5991 11.1132 11.4009 10.8543 11.4009H9.91708ZM6.16651 11.4009C5.90854 11.4009 5.69868 11.5991 5.69868 11.8433V12.7266C5.69868 12.9693 5.90855 13.167 6.16651 13.167H7.10377C7.36262 13.167 7.57318 12.9693 7.57318 12.7266V11.8433C7.57318 11.5991 7.36262 11.4009 7.10377 11.4009H6.16651ZM2.41752 11.4009C2.15867 11.4009 1.9481 11.5991 1.9481 11.8433V12.7266C1.9481 12.9693 2.15867 13.167 2.41752 13.167H3.35478C3.61275 13.167 3.82261 12.9693 3.82261 12.7266V11.8433C3.82261 11.5991 3.61274 11.4009 3.35478 11.4009H2.41752ZM9.91708 7.86817C9.65911 7.86817 9.44925 8.06641 9.44925 8.31055V9.19239C9.44925 9.43653 9.65912 9.63477 9.91708 9.63477H10.8543C11.1132 9.63477 11.3238 9.43653 11.3238 9.19239V8.31055C11.3238 8.06641 11.1132 7.86817 10.8543 7.86817H9.91708ZM6.16651 7.86817C5.90854 7.86817 5.69868 8.06641 5.69868 8.31055V9.19239C5.69868 9.43653 5.90855 9.63477 6.16651 9.63477H7.10377C7.3635 9.63477 7.57478 9.43653 7.57478 9.19239V8.31055C7.57478 8.06641 7.3635 7.86817 7.10377 7.86817H6.16651ZM2.41752 7.86817C2.15867 7.86817 1.9481 8.06641 1.9481 8.31055V9.19239C1.9481 9.43653 2.15867 9.63477 2.41752 9.63477H3.35478C3.61275 9.63477 3.82261 9.43653 3.82261 9.19239V8.31055C3.82261 8.06641 3.61274 7.86817 3.35478 7.86817H2.41752ZM13.1998 5.21729H0.0751953V3.89161C0.0751953 3.16065 0.705505 2.56641 1.48026 2.56641H2.88694V1.68457C2.88694 1.19678 3.30668 0.799805 3.82261 0.799805C4.33939 0.799805 4.75984 1.19677 4.75984 1.68457V2.56641H8.51204V1.68457C8.51204 1.19678 8.93248 0.799805 9.44927 0.799805C9.96609 0.799805 10.3865 1.19677 10.3865 1.68457V2.56641H11.7948C12.5695 2.56641 13.1998 3.16065 13.1998 3.89161L13.1998 5.21729Z" fill="#0095F3"/>
</svg>
