<svg width="18" height="13" viewBox="0 0 18 13" fill="none" xmlns="http://www.w3.org/2000/svg">
<path fill-rule="evenodd" clip-rule="evenodd" d="M8.69726 12.5583C8.64453 12.5583 3.3164 12.5542 1.99218 12.1945C1.24023 11.9916 0.673824 11.4276 0.474604 10.686C0.121084 9.34886 0.115234 6.54274 0.115234 6.51455C0.115234 6.48631 0.121094 3.67538 0.474614 2.33823C0.673834 1.592 1.25391 1.00467 1.99219 0.80545C3.31641 0.44582 8.64453 0.44166 8.69727 0.44166C8.75 0.44166 14.082 0.44582 15.4043 0.80545C16.1426 1.00423 16.7246 1.59156 16.9238 2.33823C17.2754 3.67543 17.2813 6.48631 17.2813 6.51455C17.2813 6.54274 17.2754 9.34883 16.9238 10.686C16.7246 11.4281 16.1563 11.992 15.4043 12.1945C14.082 12.5542 8.75 12.5583 8.69726 12.5583ZM6.94531 3.94807V9.07564L11.4277 6.51455L6.94531 3.94807Z" fill="white"/>
</svg>
