<svg width="33" height="38" viewBox="0 0 33 38" fill="none" xmlns="http://www.w3.org/2000/svg">
<path d="M31.2283 12.5808C30.0031 12.9892 28.9822 13.9518 28.1654 15.4687C27.3486 16.9272 26.9402 18.3858 26.9402 19.8443C26.9402 21.6529 27.4069 23.3448 28.3404 24.92C29.2739 26.4368 30.5282 27.3995 32.1034 27.8079C31.6367 29.3831 30.8491 31.0166 29.7406 32.7085C28.6905 34.3421 27.6111 35.5672 26.5027 36.384C25.5692 37.0258 24.4024 37.3466 23.0022 37.3466C22.0687 37.3466 20.9894 37.1133 19.7643 36.6465C18.7141 36.1215 17.8098 35.8589 17.0514 35.8589C16.468 35.8589 15.3012 36.209 13.5509 36.9091C12.5008 37.2008 11.7424 37.3466 11.2756 37.3466C9.87544 37.3466 8.44609 36.7632 6.98756 35.5964C4.88728 33.6128 3.25373 31.25 2.0869 28.5079C0.920081 25.7659 0.33667 22.9072 0.33667 19.9318C0.33667 16.8397 1.21179 14.1269 2.96202 11.7932C4.7706 9.40123 7.0459 8.20524 9.78793 8.20524C11.3048 8.20524 12.705 8.52611 13.9885 9.16786C14.9803 9.80962 15.9721 10.1305 16.9639 10.1305C17.8973 10.1305 18.8016 9.95547 19.6768 9.60542C21.9521 8.67196 23.4689 8.20524 24.2274 8.20524C26.2693 8.20524 28.0487 8.87616 29.5656 10.218C30.2657 10.9181 30.8199 11.7057 31.2283 12.5808ZM16.0013 8.46777C16.0013 6.60086 16.7305 4.76311 18.1891 2.95454C19.6476 1.37933 21.427 0.416697 23.5273 0.0666504C23.5273 2.28361 22.8272 4.23804 21.427 5.92993C19.8518 7.62183 18.0432 8.46777 16.0013 8.46777Z" fill="white"/>
</svg>
