<svg width="14" height="17" viewBox="0 0 14 17" fill="none" xmlns="http://www.w3.org/2000/svg">
<path fill-rule="evenodd" clip-rule="evenodd" d="M7.31148 3.93069C7.19168 3.01479 7.64958 2.03989 8.16588 1.44219C8.74198 0.744787 9.73608 0.247387 10.5505 0.206787C10.6489 1.16329 10.2724 2.09899 9.71618 2.79589C9.13848 3.47299 8.22578 4.01009 7.31148 3.93069Z" fill="#213430"/>
<path fill-rule="evenodd" clip-rule="evenodd" d="M13.4926 5.71722C13.4127 5.77772 11.7284 6.75032 11.7483 8.79482C11.7683 11.2369 13.8877 12.0516 13.9076 12.0715C13.8877 12.131 13.571 13.2232 12.798 14.3542C12.1249 15.3476 11.4303 16.3207 10.3207 16.3406C9.25098 16.3604 8.89448 15.7046 7.66648 15.7046C6.43708 15.7046 6.04058 16.3202 5.02938 16.3604C3.95968 16.3997 3.14818 15.307 2.47358 14.315C1.08588 12.3093 0.0361816 8.65672 1.46238 6.19432C2.15698 4.96312 3.42488 4.18912 4.79258 4.16922C5.84228 4.14982 6.81358 4.86472 7.44828 4.86472C8.08288 4.86472 9.21108 4.03072 10.5389 4.11012C11.0538 4.14982 12.5413 4.30872 13.4926 5.71722Z" fill="#213430"/>
</svg>
