<svg width="190" height="191" viewBox="0 0 190 191" fill="none" xmlns="http://www.w3.org/2000/svg">
<path fill-rule="evenodd" clip-rule="evenodd" d="M91.1633 4.51782C91.1633 2.39892 92.8821 0.681641 95.0007 0.681641C147.44 0.681641 189.948 43.1912 189.948 95.6299C189.948 148.068 147.44 190.577 95.0007 190.577C42.5623 190.577 0.052002 148.068 0.052002 95.6299C0.052002 93.5107 1.77124 91.7934 3.88843 91.7934C6.00708 91.7934 7.72437 93.5107 7.72437 95.6299C7.72437 143.831 46.8005 182.905 95.0007 182.905C143.201 182.905 182.276 143.831 182.276 95.6299C182.276 47.4285 143.201 8.35449 95.0007 8.35449C92.8821 8.35449 91.1633 6.63647 91.1633 4.51782Z" fill="#0095F3"/>
</svg>
