<svg width="190" height="190" viewBox="0 0 190 190" fill="none" xmlns="http://www.w3.org/2000/svg">
<path fill-rule="evenodd" clip-rule="evenodd" d="M94.9502 189.901C88.5078 189.901 82.0693 189.252 75.8145 187.972C69.7173 186.724 63.7207 184.863 57.9912 182.439C52.3643 180.059 46.938 177.114 41.8628 173.685C36.8359 170.289 32.1079 166.388 27.8106 162.09C23.5147 157.795 19.6138 153.067 16.2158 148.038C12.7871 142.963 9.8418 137.536 7.46143 131.909C5.03809 126.179 3.17676 120.182 1.9292 114.086C0.64893 107.832 0 101.394 0 94.9504C0 88.5076 0.64893 82.0693 1.9292 75.8145C3.17676 69.7183 5.03809 63.7217 7.46143 57.9912C9.8418 52.3645 12.7871 46.9382 16.2158 41.8628C19.6138 36.8337 23.5147 32.1057 27.8106 27.8103C32.1079 23.5129 36.8359 19.6121 41.8628 16.2161C46.938 12.7871 52.3643 9.84179 57.9912 7.46167C63.7202 5.03833 69.7168 3.17676 75.8145 1.92896C82.0703 0.64893 88.5088 0 94.9502 0C101.392 0 107.83 0.64893 114.086 1.92896C120.184 3.17676 126.18 5.03834 131.909 7.46167C137.536 9.8418 142.962 12.7871 148.038 16.2161C153.064 19.6121 157.792 23.5129 162.09 27.8103C166.386 32.1057 170.287 36.8335 173.685 41.8628C177.113 46.9382 180.059 52.3645 182.439 57.9912C184.862 63.7214 186.724 69.718 187.971 75.8145C189.251 82.0693 189.9 88.5076 189.9 94.9504C189.9 101.394 189.251 107.832 187.971 114.086C186.724 120.182 184.862 126.179 182.439 131.909C180.059 137.536 177.113 142.963 173.685 148.038C170.287 153.067 166.386 157.795 162.09 162.09C157.792 166.388 153.064 170.289 148.038 173.685C142.962 177.114 137.536 180.059 131.909 182.439C126.18 184.863 120.183 186.724 114.086 187.972C107.831 189.252 101.393 189.901 94.9502 189.901ZM94.9502 8.00024C89.0503 8.00024 83.1543 8.59472 77.4263 9.76684C71.8433 10.9094 66.3521 12.6138 61.1055 14.8333C55.9536 17.0122 50.9839 19.7095 46.3354 22.8498C41.7314 25.9602 37.4019 29.5322 33.4668 33.4673C29.5327 37.4016 25.9604 41.7312 22.8496 46.3354C19.709 50.9844 17.0117 55.9536 14.833 61.1055C12.6128 66.3547 10.9082 71.8459 9.7666 77.4268C8.59424 83.1545 8 89.0503 8 94.9504C8 100.851 8.59424 106.746 9.7666 112.474C10.9082 118.054 12.6128 123.546 14.833 128.795C17.0122 133.947 19.709 138.916 22.8496 143.565C25.9604 148.169 29.5327 152.499 33.4668 156.433C37.4019 160.368 41.7314 163.941 46.3354 167.051C50.9844 170.191 55.9536 172.888 61.1055 175.067C66.3521 177.287 71.8433 178.991 77.4263 180.134C83.1543 181.306 89.0503 181.9 94.9502 181.9C100.85 181.9 106.746 181.306 112.474 180.134C118.057 178.991 123.548 177.287 128.795 175.067C133.947 172.888 138.916 170.191 143.565 167.051C148.169 163.941 152.499 160.368 156.434 156.433C160.368 152.499 163.94 148.169 167.051 143.565C170.191 138.916 172.889 133.947 175.067 128.795C177.288 123.546 178.992 118.054 180.134 112.474C181.306 106.746 181.9 100.851 181.9 94.9504C181.9 89.0503 181.306 83.1545 180.134 77.4268C178.992 71.8459 177.288 66.3547 175.067 61.1055C172.889 55.9538 170.191 50.9846 167.051 46.3354C163.94 41.731 160.368 37.4016 156.434 33.4673C152.499 29.5322 148.169 25.96 143.565 22.8498C138.917 19.7095 133.947 17.0122 128.795 14.8333C123.548 12.6138 118.057 10.9094 112.474 9.76684C106.746 8.59472 100.85 8.00024 94.9502 8.00024Z" fill="#0095F3"/>
</svg>
