<svg width="160" height="191" viewBox="0 0 160 191" fill="none" xmlns="http://www.w3.org/2000/svg">
<path fill-rule="evenodd" clip-rule="evenodd" d="M61.2835 4.34277C61.2835 2.22387 62.9998 0.506592 65.1141 0.506592C117.47 0.506592 159.911 43.0161 159.911 95.4548C159.911 147.893 117.47 190.402 65.1141 190.402C40.5135 190.402 18.095 181.013 1.24933 165.623C-0.313169 164.195 -0.425959 161.769 1.00079 160.204C2.42511 158.638 4.84893 158.526 6.41143 159.954C21.9007 174.106 42.4979 182.73 65.1141 182.73C113.238 182.73 152.252 143.656 152.252 95.4548C152.252 47.2534 113.238 8.17944 65.1141 8.17944C62.9998 8.17944 61.2835 6.46142 61.2835 4.34277Z" fill="#0095F3"/>
</svg>
