<svg width="190" height="191" viewBox="0 0 190 191" fill="none" xmlns="http://www.w3.org/2000/svg">
<path fill-rule="evenodd" clip-rule="evenodd" d="M91.105 4.34277C91.105 2.22387 92.8213 0.506592 94.9399 0.506592C147.379 0.506592 189.889 43.0161 189.889 95.4548C189.889 147.893 147.379 190.402 94.9399 190.402C42.5024 190.402 -0.00585938 147.893 -0.00585938 95.4548C-0.00585938 77.1243 5.19092 59.9973 14.1948 45.4792C15.311 43.6785 17.6763 43.124 19.4761 44.2405C21.2778 45.3577 21.8325 47.7217 20.7148 49.5227C12.4424 62.8618 7.66504 78.5942 7.66504 95.4548C7.66504 143.656 46.7397 182.73 94.9399 182.73C143.141 182.73 182.215 143.656 182.215 95.4548C182.215 47.2534 143.141 8.17944 94.9399 8.17944C92.8213 8.17944 91.105 6.46142 91.105 4.34277Z" fill="#0095F3"/>
</svg>
