<svg width="21" height="15" viewBox="0 0 21 15" fill="none" xmlns="http://www.w3.org/2000/svg">
<path fill-rule="evenodd" clip-rule="evenodd" d="M11.5907 9.83008V5.6333C11.5907 2.54687 14.1542 0.0385742 17.3046 0.0385742C18.0927 0.0385742 18.7313 0.661624 18.7313 1.43652C18.7313 2.208 18.0927 2.83447 17.3046 2.83447C15.7294 2.83447 14.4472 4.09033 14.4472 5.6333V5.8916C14.8964 5.7334 15.371 5.6333 15.8778 5.6333C18.2411 5.6333 20.1581 7.51221 20.1581 9.83008C20.1581 12.1509 18.2411 14.0298 15.8778 14.0298C13.5077 14.0298 11.5907 12.1509 11.5907 9.83008ZM0.171753 9.83008V5.6333C0.171753 2.54687 2.7323 0.0385742 5.87976 0.0385742C6.67078 0.0385742 7.30945 0.661624 7.30945 1.43652C7.30945 2.208 6.67078 2.83447 5.87976 2.83447C4.30456 2.83447 3.02624 4.09033 3.02624 5.6333V5.8916C3.47448 5.7334 3.94909 5.6333 4.453 5.6333C6.81628 5.6333 8.73718 7.51221 8.73718 9.83008C8.73718 12.1509 6.81921 14.0298 4.453 14.0298C2.08679 14.0298 0.171753 12.1509 0.171753 9.83008Z" fill="#0095F3"/>
</svg>
