<svg width="10" height="11" viewBox="0 0 10 11" fill="none" xmlns="http://www.w3.org/2000/svg">
<path fill-rule="evenodd" clip-rule="evenodd" d="M4.78794 10.1656C4.56138 9.94755 4.55552 9.58418 4.77427 9.35251L8.62193 5.32822L4.77427 1.30844C4.6649 1.19491 4.61021 1.05411 4.61021 0.908755C4.61021 0.758855 4.67466 0.604435 4.78794 0.490875C5.02427 0.272855 5.38755 0.281955 5.60435 0.509035L9.82896 4.93304C10.0477 5.1556 10.0477 5.50537 9.83873 5.7279L5.60436 10.1474C5.49303 10.2667 5.34264 10.3269 5.1903 10.3269C5.04772 10.3269 4.90319 10.2735 4.78796 10.1656L4.78794 10.1656ZM0.176609 10.1656C-0.0538608 9.94755 -0.0577608 9.58418 0.159029 9.35251L4.00669 5.32822L0.159029 1.30844C0.0555092 1.19491 0.000829222 1.05411 0.000829222 0.908755C0.000829222 0.758855 0.0594192 0.604435 0.176609 0.490875C0.409029 0.272855 0.772309 0.281955 0.994969 0.509035L5.21958 4.93304C5.43247 5.1556 5.43247 5.50537 5.22349 5.7279L0.994969 10.1474C0.879739 10.2667 0.729349 10.3269 0.576999 10.3269C0.432469 10.3269 0.289889 10.2735 0.176609 10.1656V10.1656Z" fill="#0095F3"/>
</svg>
