<svg width="17" height="17" viewBox="0 0 17 17" fill="none" xmlns="http://www.w3.org/2000/svg">
<path fill-rule="evenodd" clip-rule="evenodd" d="M16.4428 8.46942C16.4428 10.9252 15.5528 13.0037 14.0011 14.4099C14.0025 14.4094 14.0025 14.4089 14.0025 14.4089L11.2656 14.2505L11.3455 12.3905C11.3455 12.3909 11.3455 12.3909 11.344 12.3909C12.2368 11.8022 12.8202 10.9195 13.0013 9.88402L8.53723 9.88312V6.77052H16.2887C16.3886 7.31382 16.4428 7.87882 16.4428 8.46942Z" fill="#518EF8"/>
<path fill-rule="evenodd" clip-rule="evenodd" d="M14.0036 14.4075C14.0036 14.4079 14.0039 14.4084 14.0025 14.4089C12.6405 15.6434 10.7675 16.3607 8.53983 16.3607C5.31513 16.3607 2.52543 14.5503 1.16623 11.9119L1.62113 9.47552L3.90743 9.83012C3.90743 9.82962 3.90743 9.82962 3.90743 9.82912C4.56063 11.7436 6.38763 13.1639 8.53983 13.1639C9.65363 13.1639 10.6067 12.879 11.3455 12.3905C11.3455 12.3905 11.3466 12.3899 11.3466 12.3895L14.0036 14.4075Z" fill="#28B446"/>
<path fill-rule="evenodd" clip-rule="evenodd" d="M3.90563 9.83012C3.90563 9.83062 3.90563 9.83062 3.90563 9.83112L1.16583 11.9129C0.605331 10.8216 0.287231 9.59042 0.287231 8.28542C0.287231 6.98002 0.603831 5.74832 1.16583 4.65752H3.19243L3.90563 6.73982C3.74013 7.22822 3.64743 7.74782 3.64743 8.28542C3.64743 8.82262 3.74013 9.34172 3.90563 9.83012Z" fill="#FBBB00"/>
<path fill-rule="evenodd" clip-rule="evenodd" d="M14.0593 2.31252L11.7046 4.61652C10.8445 3.81512 9.75493 3.40472 8.53983 3.40472C6.38623 3.40472 4.56023 4.82532 3.90563 6.73982L1.16583 4.65752C2.52353 2.01872 5.31513 0.20752 8.53983 0.20752C10.7647 0.20752 12.6302 1.00842 14.0593 2.31252Z" fill="#F14336"/>
</svg>
