<svg width="23" height="29" viewBox="0 0 23 29" fill="none" xmlns="http://www.w3.org/2000/svg">
<path fill-rule="evenodd" clip-rule="evenodd" d="M11.7021 28.8713C11.1846 28.8713 10.6963 28.6359 10.3643 28.2251C9.34473 26.9683 6.7334 23.657 4.52637 20.0653C2.11426 16.1387 0.889648 13.0638 0.889648 10.926C0.889648 8.03565 2.01465 5.32007 4.05762 3.27942C6.09864 1.23743 8.81348 0.112915 11.7021 0.112915C17.6631 0.112915 22.5146 4.96363 22.5146 10.926C22.5146 13.0568 21.2842 16.1317 18.8584 20.0653C16.9131 23.22 14.6221 26.2439 13.04 28.2251C12.708 28.6359 12.2197 28.8713 11.7021 28.8713ZM11.6982 7.3247C9.71387 7.3247 8.10058 8.9403 8.10058 10.926C8.10058 12.9093 9.71386 14.5228 11.6982 14.5228C13.6846 14.5228 15.2998 12.9093 15.2998 10.926C15.2998 8.9403 13.6846 7.3247 11.6982 7.3247Z" fill="white"/>
</svg>
